<?xml version="1.0" standalone="no"?>
<!DOCTYPE svg PUBLIC "-//W3C//DTD SVG 20010904//EN"
 "http://www.w3.org/TR/2001/REC-SVG-20010904/DTD/svg10.dtd">
<svg version="1.0" xmlns="http://www.w3.org/2000/svg"
 width="3000.000000pt" height="3000.000000pt" viewBox="0 0 3000.000000 3000.000000"
 preserveAspectRatio="xMidYMid meet">
<metadata>
Created by potrace 1.14, written by Peter Selinger 2001-2017
</metadata>
<g transform="translate(0.000000,3000.000000) scale(0.100000,-0.100000)"
fill="#000000" stroke="none">
<path d="M15887 25264 c-1 -1 -51 -4 -112 -8 -60 -3 -121 -8 -135 -10 -14 -3
-47 -7 -75 -10 -27 -3 -59 -7 -70 -10 -11 -2 -40 -7 -65 -11 -25 -4 -54 -9
-65 -11 -11 -2 -31 -6 -45 -9 -50 -10 -66 -13 -130 -30 -36 -9 -76 -19 -89
-21 -13 -3 -61 -18 -106 -34 -46 -15 -86 -26 -89 -22 -3 3 -6 -1 -6 -8 0 -7
-3 -11 -6 -8 -5 6 -92 -21 -149 -46 -16 -8 -61 -26 -100 -41 -38 -15 -81 -33
-95 -40 -14 -7 -77 -39 -140 -70 -63 -31 -117 -60 -120 -63 -3 -4 -21 -15 -40
-24 -36 -18 -86 -47 -105 -61 -5 -4 -52 -35 -103 -67 -51 -33 -98 -64 -105
-70 -6 -6 -35 -27 -63 -48 -77 -56 -126 -95 -152 -119 -12 -13 -25 -23 -27
-23 -2 0 -15 -10 -27 -22 -13 -13 -48 -45 -78 -72 -30 -27 -54 -53 -52 -58 1
-4 -2 -8 -7 -8 -26 0 -296 -310 -407 -467 -27 -37 -51 -70 -54 -73 -12 -11
-60 -90 -60 -99 0 -5 -4 -11 -8 -13 -10 -4 -103 -161 -121 -205 -7 -18 -17
-33 -22 -33 -5 0 -8 -3 -7 -7 2 -5 -23 -60 -53 -123 -59 -121 -75 -157 -104
-230 -9 -25 -21 -53 -26 -62 -5 -10 -9 -22 -9 -27 0 -5 -5 -22 -12 -38 -6 -15
-12 -32 -13 -38 -2 -5 -16 -55 -33 -110 -17 -55 -33 -111 -36 -125 -3 -14 -14
-58 -25 -97 -11 -40 -23 -90 -26 -111 -3 -21 -7 -47 -9 -57 -2 -11 -6 -38 -10
-60 -3 -22 -8 -58 -12 -80 -3 -22 -8 -53 -10 -70 -2 -16 -6 -43 -9 -60 -28
-173 -21 -726 11 -878 5 -21 11 -63 19 -119 2 -15 6 -35 9 -45 3 -10 7 -36 11
-58 8 -58 33 -160 57 -240 12 -38 23 -77 24 -85 2 -8 22 -69 44 -135 23 -66
43 -127 45 -135 2 -8 23 -55 46 -105 24 -49 44 -92 44 -95 1 -3 22 -50 48
-104 26 -54 47 -100 47 -102 0 -2 17 -30 37 -61 48 -73 54 -84 75 -120 l17
-29 -77 -81 c-118 -123 -254 -270 -263 -285 -5 -7 -9 -9 -9 -5 0 5 -12 -6 -27
-25 -16 -18 -44 -49 -63 -69 -19 -20 -84 -89 -145 -154 -60 -64 -128 -136
-150 -160 -113 -119 -296 -315 -345 -367 -30 -32 -84 -90 -120 -127 -36 -38
-108 -115 -160 -171 -52 -56 -113 -121 -135 -144 -22 -23 -59 -63 -82 -88 -24
-26 -43 -45 -43 -42 0 3 -12 -9 -27 -28 -29 -34 -62 -70 -210 -225 -48 -51
-122 -129 -163 -174 -41 -45 -112 -120 -157 -167 -46 -47 -83 -87 -83 -89 0
-1 -26 -29 -57 -62 -32 -32 -96 -100 -143 -150 -47 -51 -119 -127 -160 -171
-41 -43 -129 -136 -195 -206 -66 -70 -143 -152 -171 -181 -28 -29 -50 -53 -48
-53 1 0 -21 -24 -49 -53 -29 -29 -106 -111 -172 -182 -66 -70 -148 -157 -182
-193 -35 -35 -63 -66 -63 -67 0 -2 -30 -34 -67 -73 -38 -38 -120 -125 -183
-192 -63 -68 -133 -142 -155 -165 -22 -24 -89 -95 -150 -160 -60 -65 -128
-137 -150 -160 -22 -23 -87 -92 -145 -154 -58 -61 -138 -146 -177 -188 -40
-41 -73 -77 -73 -78 0 -1 -30 -34 -67 -72 -147 -151 -213 -224 -213 -234 0 -6
-4 -8 -9 -5 -5 4 -11 2 -13 -3 -3 -10 -112 -128 -245 -266 -40 -41 -71 -75
-69 -75 2 0 -44 -48 -101 -106 -56 -58 -103 -108 -103 -110 0 -2 -21 -26 -47
-53 -42 -42 -211 -221 -319 -336 -101 -109 -283 -303 -319 -340 -35 -36 -128
-136 -329 -351 l-50 -52 -110 55 c-117 59 -266 124 -266 117 0 -3 -14 3 -31
12 -17 8 -38 17 -47 19 -10 2 -46 15 -81 29 -36 14 -73 26 -82 26 -10 0 -20 4
-23 9 -3 5 -16 11 -28 14 -13 3 -75 20 -138 37 -165 44 -218 56 -285 63 -17 2
-37 7 -44 11 -7 4 -15 6 -17 3 -3 -3 -20 -1 -37 3 -18 5 -56 12 -86 15 -30 4
-63 9 -75 11 -65 15 -257 27 -441 27 -172 1 -424 -9 -465 -18 -14 -3 -47 -8
-75 -11 -87 -9 -99 -11 -155 -22 -30 -6 -66 -13 -80 -16 -14 -2 -32 -7 -40
-10 -17 -6 -62 -16 -100 -21 -41 -5 -191 -42 -257 -63 -34 -11 -64 -17 -67
-14 -3 3 -6 0 -6 -6 0 -7 -3 -11 -7 -10 -15 3 -168 -49 -263 -89 -8 -3 -18 -5
-22 -5 -5 1 -8 -2 -8 -6 0 -5 -6 -9 -12 -9 -7 0 -46 -16 -85 -36 -40 -20 -73
-34 -73 -31 0 3 -13 -4 -29 -15 -16 -12 -36 -21 -45 -21 -9 0 -16 -4 -16 -10
0 -5 -3 -9 -7 -8 -9 1 -81 -33 -133 -63 -19 -12 -53 -31 -75 -42 -22 -12 -42
-24 -45 -27 -3 -3 -18 -12 -35 -21 -31 -15 -261 -165 -281 -184 -7 -5 -24 -19
-40 -30 -76 -55 -184 -141 -226 -182 -27 -24 -48 -42 -48 -39 0 9 -313 -309
-340 -345 -14 -18 -33 -40 -42 -48 -10 -9 -18 -21 -18 -28 0 -7 -7 -13 -15
-13 -8 0 -15 -7 -15 -15 0 -8 -4 -15 -8 -15 -4 0 -32 -34 -62 -76 -30 -41 -62
-84 -70 -94 -8 -10 -22 -28 -30 -40 -8 -12 -23 -33 -32 -45 -10 -13 -18 -28
-18 -34 0 -6 -4 -11 -8 -11 -5 0 -19 -20 -31 -45 -12 -25 -27 -45 -32 -45 -6
0 -8 -4 -5 -9 3 -5 -1 -14 -9 -21 -8 -7 -15 -19 -15 -26 0 -8 -4 -14 -10 -14
-5 0 -10 -6 -10 -14 0 -8 -3 -16 -7 -18 -7 -3 -49 -79 -130 -238 -15 -30 -31
-56 -35 -58 -5 -2 -8 -12 -8 -21 0 -10 -3 -21 -8 -25 -4 -4 -7 -11 -7 -14 -1
-4 -8 -21 -18 -38 -9 -17 -13 -34 -10 -38 4 -3 1 -6 -5 -6 -7 0 -12 -8 -12
-17 0 -10 -7 -27 -15 -37 -8 -11 -15 -28 -15 -37 0 -10 -3 -19 -7 -21 -23 -10
-171 -523 -198 -683 -3 -16 -8 -41 -10 -55 -3 -14 -7 -38 -10 -55 -8 -59 -16
-110 -20 -131 -5 -22 -17 -176 -19 -231 0 -18 -4 -33 -8 -33 -3 0 -3 -13 2
-29 4 -16 6 -32 3 -35 -9 -8 -9 -110 -1 -128 5 -10 5 -18 1 -18 -4 0 -7 -26
-6 -57 3 -103 14 -297 18 -328 2 -16 7 -50 10 -75 3 -25 8 -61 11 -80 11 -87
36 -222 54 -296 11 -45 21 -91 23 -102 2 -12 6 -25 10 -28 4 -4 7 -16 7 -28 0
-16 25 -98 47 -156 4 -8 5 -18 5 -22 -1 -5 3 -8 10 -8 6 0 9 -3 5 -6 -3 -3 8
-43 24 -87 17 -45 32 -86 33 -92 2 -5 6 -18 10 -27 4 -9 9 -22 11 -30 9 -39
26 -76 115 -251 103 -205 124 -242 216 -382 32 -49 61 -95 64 -101 3 -5 11
-17 18 -25 7 -8 38 -48 69 -89 31 -41 91 -116 134 -166 42 -49 83 -100 90
-112 8 -12 22 -25 32 -28 9 -3 15 -10 12 -15 -4 -5 -2 -9 2 -9 5 0 43 -33 85
-72 124 -119 265 -248 303 -276 6 -4 42 -30 80 -57 39 -27 75 -53 80 -57 72
-54 107 -78 115 -78 6 0 10 -4 10 -10 0 -5 6 -10 13 -10 6 -1 28 -14 47 -30
19 -17 38 -30 42 -30 5 0 26 -11 48 -25 22 -14 40 -22 40 -18 0 4 7 -2 15 -13
8 -10 15 -15 15 -11 0 5 12 0 27 -11 28 -19 240 -125 318 -158 131 -57 283
-114 314 -120 20 -4 41 -9 46 -13 10 -5 117 -37 161 -46 12 -3 40 -11 63 -20
23 -8 43 -14 46 -15 3 0 6 0 8 -1 5 -1 33 -8 55 -13 13 -3 31 -8 40 -10 9 -3
33 -8 52 -11 19 -2 46 -7 60 -9 14 -3 41 -8 60 -10 19 -3 64 -10 100 -16 35
-6 72 -9 82 -7 10 3 18 2 18 -2 0 -4 12 -8 28 -8 31 -2 160 -11 247 -18 98 -8
293 -4 495 10 133 10 155 12 155 15 0 1 11 3 25 4 31 4 118 14 168 21 41 6
204 41 267 58 22 6 47 11 55 12 8 1 22 4 30 8 58 22 144 46 151 41 5 -3 9 -1
9 3 0 7 107 45 163 59 4 1 9 3 12 4 3 1 8 3 13 4 21 5 62 21 109 42 28 13 54
24 57 24 15 0 327 148 336 159 3 3 11 7 18 9 8 1 66 34 130 72 63 39 119 70
124 70 4 0 8 4 8 8 0 5 20 19 45 32 25 13 45 27 45 32 0 4 6 8 13 8 7 0 23 10
37 23 14 12 41 34 60 47 19 13 40 29 47 35 37 31 43 35 52 35 5 0 11 3 13 8 2
4 30 29 63 57 63 53 90 76 143 125 18 16 34 30 36 30 5 0 218 217 227 232 5 7
9 9 9 5 0 -5 17 13 37 40 20 26 41 53 47 59 34 34 112 130 162 199 32 44 62
82 66 83 4 2 8 10 8 18 0 8 7 17 15 20 8 4 15 12 15 19 0 7 7 18 16 26 8 7 24
29 35 48 16 31 78 133 109 181 24 37 67 119 80 151 8 18 17 36 21 39 8 6 76
150 104 220 9 25 25 63 35 85 32 71 89 234 91 260 0 6 5 16 11 23 6 6 7 12 4
12 -4 0 -2 8 3 18 6 11 12 30 15 43 3 13 15 58 26 99 12 41 24 86 26 100 3 14
10 43 15 65 5 22 11 49 13 60 2 11 8 40 14 65 6 25 13 68 16 95 3 28 8 66 11
85 7 45 16 122 17 138 1 6 7 13 15 13 7 1 16 2 21 3 4 1 32 6 62 10 30 5 64
10 75 12 66 14 254 44 261 43 5 -1 16 0 24 4 13 5 61 13 170 31 14 2 36 7 50
10 14 3 41 8 60 11 19 2 46 7 60 9 24 5 186 32 240 41 14 2 66 11 115 20 50 9
106 18 125 21 33 4 46 6 110 20 14 2 39 7 55 9 49 6 98 14 125 20 46 10 85 16
115 20 17 2 71 11 120 20 174 31 211 37 238 38 9 1 17 4 17 7 0 3 12 6 28 6
15 1 42 4 60 8 40 8 89 16 125 22 15 2 42 6 60 9 17 3 41 7 52 9 11 2 34 6 50
9 17 4 46 9 65 12 19 2 44 6 55 8 11 3 43 8 70 12 28 5 52 9 55 10 3 0 27 4
53 9 27 4 59 9 70 12 28 5 183 32 222 37 31 5 127 22 180 32 17 3 46 8 65 11
19 2 58 9 86 14 28 6 67 12 86 14 20 2 40 6 45 9 4 2 31 7 58 11 28 3 61 8 75
11 14 3 81 14 150 26 119 20 149 25 195 34 11 2 36 6 55 9 19 3 44 7 55 10 11
2 43 7 70 11 28 4 59 9 70 11 11 2 36 6 55 9 19 3 58 10 85 16 82 16 93 17
210 35 17 3 37 7 45 9 17 5 108 18 128 18 6 0 12 3 12 6 0 3 10 6 23 7 24 0
94 11 142 20 17 4 39 7 50 9 11 1 36 5 55 8 100 19 271 48 305 52 17 2 30 4
30 5 0 1 14 4 30 6 17 3 53 9 80 14 28 6 65 12 83 15 18 2 45 6 60 10 43 9 67
13 119 21 49 7 69 10 113 18 14 3 41 8 60 10 19 3 46 8 60 11 59 12 77 15 115
20 23 3 52 8 65 10 70 14 87 17 110 20 14 1 39 5 55 8 41 9 102 19 180 31 11
2 34 6 50 9 17 3 47 9 68 12 87 12 139 21 165 29 9 3 40 8 67 12 80 11 90 12
93 14 1 2 10 3 20 4 9 2 40 6 67 11 28 5 57 9 65 10 8 1 31 5 50 9 19 3 47 8
63 11 15 3 37 7 50 9 12 3 38 7 57 10 19 3 46 8 60 10 14 3 68 12 120 21 146
24 148 25 178 30 15 3 37 7 49 9 11 3 43 8 70 12 26 3 57 8 68 10 11 2 47 9
80 15 33 5 71 12 85 15 26 5 53 9 123 19 23 3 49 8 58 11 10 3 30 6 45 8 16 3
72 12 124 21 135 23 151 26 190 32 19 3 47 6 63 7 15 1 27 4 27 7 0 3 6 6 13
6 20 1 112 15 117 18 3 2 30 6 60 10 30 4 58 9 61 10 3 2 28 7 55 10 27 4 58
9 68 12 11 3 34 7 51 9 17 1 69 10 115 18 47 9 99 18 115 20 56 9 220 37 250
43 17 3 39 7 50 8 11 2 48 8 83 15 35 6 75 13 90 15 15 2 36 6 47 8 11 3 40 8
65 11 25 3 56 8 70 11 37 8 70 14 114 20 21 4 48 9 60 11 23 4 63 11 111 19
17 2 41 7 55 10 14 3 41 7 60 9 19 3 46 8 60 11 14 3 41 7 60 10 19 2 45 6 58
9 42 9 276 49 302 52 14 1 25 3 25 4 0 2 9 4 20 5 11 1 36 5 55 9 19 3 49 8
65 11 17 3 57 10 90 16 33 5 74 12 90 13 17 2 30 5 30 6 0 2 22 6 72 14 21 3
49 8 63 10 23 4 40 7 135 22 17 3 41 7 55 10 73 13 320 54 355 59 22 4 47 8
55 10 8 2 30 7 48 10 73 12 94 15 125 21 17 4 43 8 57 9 14 2 25 4 25 5 0 1
16 3 35 6 19 2 57 9 84 14 27 6 51 8 54 6 2 -3 13 -1 23 4 20 11 27 2 112
-160 116 -222 137 -260 184 -331 26 -41 51 -78 56 -84 4 -5 32 -47 62 -92 30
-45 65 -93 78 -106 12 -13 29 -32 37 -43 8 -11 35 -44 60 -74 25 -30 52 -63
60 -73 8 -10 24 -29 35 -41 11 -13 38 -44 60 -71 49 -60 301 -308 318 -314 6
-2 17 -10 22 -17 6 -6 51 -44 100 -83 143 -113 145 -115 173 -139 40 -34 291
-202 302 -202 6 0 10 -3 10 -7 0 -9 98 -66 118 -69 7 -1 19 -8 27 -14 19 -16
309 -162 365 -184 25 -10 56 -23 70 -29 14 -6 27 -11 30 -12 11 -4 66 -26 88
-35 12 -6 33 -14 47 -20 14 -5 35 -14 48 -19 42 -17 102 -39 110 -40 25 -3 64
-14 79 -22 10 -5 27 -9 38 -9 11 0 20 -5 20 -12 0 -6 3 -9 6 -6 3 4 36 -2 72
-13 37 -11 76 -21 87 -23 11 -2 88 -18 170 -34 83 -17 173 -34 200 -37 28 -3
64 -8 80 -10 254 -34 384 -42 645 -39 124 1 259 5 300 8 70 6 96 9 175 21 81
12 113 17 145 20 55 6 111 16 170 30 110 26 235 55 255 58 11 2 27 7 35 10 24
8 213 69 230 72 107 25 567 230 715 318 10 7 37 23 60 37 22 13 48 29 57 35
147 87 438 293 446 316 2 5 8 9 13 9 13 0 77 51 140 110 26 25 80 74 120 110
68 62 88 81 184 185 101 109 160 180 261 316 60 81 116 157 124 169 8 12 23
33 33 45 9 13 17 28 17 33 0 6 3 12 8 14 31 14 304 527 342 643 7 22 16 45 21
50 4 6 10 22 13 35 3 14 30 93 61 175 46 124 76 226 110 374 3 9 11 45 20 81
9 35 18 80 21 100 2 19 7 51 10 70 2 19 7 53 10 75 3 22 7 54 10 70 3 17 7 53
10 80 9 94 10 101 15 110 20 39 16 546 -6 755 -2 19 -6 64 -9 100 -9 95 -12
122 -20 155 -3 17 -8 44 -11 60 -2 17 -7 41 -10 55 -6 23 -11 50 -30 149 -3
19 -10 42 -16 52 -5 11 -8 19 -5 19 13 0 -118 426 -158 515 -8 17 -24 53 -36
80 -12 28 -30 68 -40 90 -10 22 -26 58 -36 80 -38 89 -125 260 -141 277 -9 10
-12 18 -8 18 4 0 1 8 -7 18 -8 9 -37 55 -64 102 -48 84 -86 139 -144 212 -17
20 -30 41 -30 46 0 6 -3 12 -8 14 -4 2 -25 28 -47 58 -22 30 -43 60 -47 65 -5
6 -27 36 -51 67 -87 114 -269 306 -417 438 -94 84 -109 98 -156 141 -54 49
-213 169 -223 169 -5 0 -11 3 -13 8 -5 12 -82 67 -90 64 -5 -1 -8 2 -8 7 0 4
-75 53 -167 107 -93 54 -170 102 -171 106 -2 5 -8 6 -13 2 -5 -3 -9 -1 -9 3 0
5 -20 17 -45 28 -25 11 -45 23 -45 28 0 4 -9 7 -20 7 -11 0 -20 5 -20 10 0 6
-5 10 -12 10 -7 0 -58 23 -115 50 -57 28 -105 50 -108 50 -3 0 -30 11 -60 25
-31 13 -58 24 -60 25 -15 2 -145 48 -170 60 -16 7 -136 43 -225 66 -8 2 -40
11 -70 19 -30 8 -64 17 -75 20 -11 3 -45 12 -75 20 -30 8 -80 20 -110 25 -30
5 -66 11 -80 14 -13 3 -42 8 -64 12 -22 3 -43 7 -47 10 -4 2 -28 6 -55 9 -27
2 -69 7 -94 10 -25 3 -72 8 -105 11 -33 3 -78 7 -100 9 -56 6 -455 7 -540 1
-95 -6 -205 -16 -235 -21 -14 -2 -50 -7 -80 -10 -30 -3 -64 -8 -75 -10 -19 -4
-78 -14 -120 -20 -11 -1 -20 -3 -20 -5 0 -1 -9 -3 -20 -5 -11 -1 -31 -5 -45
-8 -14 -3 -43 -9 -65 -13 -51 -10 -55 -11 -57 -13 -2 -2 -14 -4 -28 -6 -46 -8
-136 -32 -298 -81 -7 -2 -14 -4 -17 -4 -3 0 -29 -9 -59 -21 -30 -11 -65 -22
-77 -24 -12 -3 -26 -10 -31 -17 -4 -7 -8 -10 -8 -6 0 4 -20 -1 -44 -12 -24
-10 -47 -16 -50 -13 -3 4 -6 2 -6 -4 0 -6 -13 -13 -28 -16 -26 -5 -176 -71
-265 -117 -22 -11 -45 -20 -53 -20 -8 0 -14 -4 -14 -10 0 -5 -9 -10 -20 -10
-11 0 -20 -4 -20 -8 0 -5 -16 -14 -35 -22 -19 -8 -35 -18 -35 -22 0 -5 -4 -6
-10 -3 -5 3 -10 2 -10 -3 0 -5 -15 -16 -32 -23 -18 -7 -57 -28 -85 -46 l-53
-33 -72 70 c-91 88 -587 574 -895 877 -127 125 -397 390 -598 588 -202 198
-448 440 -547 538 -99 97 -184 177 -189 177 -5 0 -9 4 -9 9 0 5 -6 16 -14 23
-25 24 -717 703 -897 880 -159 157 -203 208 -180 208 4 0 16 18 27 40 10 22
22 40 27 40 4 0 7 4 7 10 0 5 13 32 30 60 16 27 27 50 24 50 -3 0 3 16 15 36
12 19 21 42 21 50 0 8 5 14 10 14 6 0 10 6 10 13 0 7 8 31 19 53 10 21 26 62
35 89 9 28 19 57 23 65 3 8 7 20 8 25 2 6 12 34 24 63 11 28 18 52 15 52 -4 0
0 10 8 23 13 19 41 109 64 202 4 17 8 35 10 40 1 6 4 22 7 37 3 15 8 31 10 35
4 7 13 49 21 108 2 11 7 38 11 60 4 22 9 49 11 60 2 11 7 43 9 71 3 28 8 62
10 75 18 85 27 607 12 714 -3 28 -9 75 -12 105 -3 30 -7 69 -10 85 -2 17 -7
53 -10 80 -3 28 -8 61 -11 75 -3 14 -8 36 -10 50 -3 14 -10 43 -16 65 -5 22
-12 49 -14 60 -8 45 -22 102 -32 126 -6 15 -8 29 -5 32 3 3 1 12 -3 19 -5 7
-9 18 -11 23 -8 36 -12 53 -22 78 -6 15 -8 27 -6 27 3 0 -1 10 -9 23 -7 12
-17 36 -21 52 -11 39 -9 35 -48 130 -6 17 -12 32 -13 35 0 3 -13 32 -28 65
-15 33 -29 65 -30 70 -4 20 -141 282 -183 347 -12 21 -23 42 -23 48 0 5 -3 10
-8 10 -4 0 -18 20 -32 45 -14 25 -28 45 -32 45 -5 0 -8 6 -8 13 0 6 -14 28
-30 47 -16 19 -30 41 -30 48 0 6 -4 12 -8 12 -4 0 -15 12 -24 28 -9 15 -25 37
-36 50 -11 13 -35 42 -54 65 -109 136 -284 321 -390 412 -32 28 -137 120 -196
173 -14 12 -31 22 -38 22 -8 0 -14 3 -14 8 0 4 -18 18 -40 32 -22 14 -40 28
-40 32 0 5 -4 8 -9 8 -6 0 -54 31 -109 69 -55 37 -124 81 -153 97 -30 15 -66
36 -81 46 -14 10 -33 18 -42 18 -9 0 -16 4 -16 8 0 5 -19 17 -42 28 -24 10
-45 21 -48 24 -3 3 -12 6 -20 8 -8 2 -40 15 -70 29 -140 64 -279 121 -315 127
-5 1 -47 14 -92 29 -45 15 -90 29 -100 30 -10 2 -25 7 -33 10 -8 3 -26 8 -40
11 -54 11 -168 37 -228 52 -34 8 -66 12 -71 9 -5 -3 -12 -1 -16 5 -4 6 -9 9
-13 6 -4 -2 -34 0 -67 5 -93 13 -153 19 -277 25 -107 5 -337 11 -341 8z m1991
-6835 c59 -61 161 -166 227 -234 66 -68 203 -210 305 -315 102 -105 239 -246
305 -314 66 -68 217 -224 335 -346 118 -122 253 -262 300 -310 397 -409 571
-588 646 -667 208 -214 517 -533 624 -643 104 -107 471 -486 478 -494 2 -2
-18 -43 -43 -91 -26 -48 -51 -97 -57 -109 -6 -12 -15 -28 -20 -36 -4 -8 -12
-24 -17 -35 -5 -11 -35 -74 -66 -139 -32 -66 -58 -124 -59 -130 -2 -6 -7 -22
-13 -36 -10 -23 -19 -46 -57 -147 -15 -39 -23 -64 -24 -73 0 -3 -5 -17 -11
-33 -6 -15 -13 -38 -16 -50 -2 -12 -9 -40 -15 -62 -6 -22 -13 -47 -15 -55 -2
-8 -4 -15 -5 -15 -1 0 -3 -11 -6 -25 -2 -14 -8 -36 -13 -50 -6 -14 -13 -41
-17 -60 -10 -46 -11 -50 -13 -52 -2 -2 -5 -14 -7 -28 -3 -14 -9 -41 -14 -60
-5 -19 -12 -57 -16 -85 -3 -27 -8 -59 -10 -70 -2 -11 -6 -33 -9 -50 -3 -16 -7
-43 -10 -60 -3 -16 -8 -57 -11 -90 -3 -33 -7 -76 -9 -95 -2 -19 -4 -42 -4 -51
-1 -12 -14 -19 -47 -24 -25 -3 -56 -8 -67 -11 -12 -2 -38 -7 -57 -10 -19 -2
-48 -8 -65 -11 -16 -4 -34 -8 -40 -9 -5 -1 -30 -5 -55 -9 -25 -4 -65 -11 -90
-16 -52 -11 -90 -17 -144 -24 -21 -3 -41 -7 -45 -9 -3 -2 -31 -7 -61 -11 -30
-4 -57 -8 -60 -10 -5 -3 -181 -35 -225 -41 -11 -1 -20 -3 -20 -4 0 -1 -9 -3
-20 -5 -36 -7 -110 -19 -125 -21 -8 -1 -55 -10 -105 -19 -49 -10 -99 -19 -110
-20 -11 -1 -20 -3 -20 -4 0 -1 -13 -4 -30 -6 -16 -2 -46 -7 -65 -10 -19 -4
-44 -9 -55 -11 -11 -2 -33 -6 -50 -9 -16 -3 -46 -8 -65 -11 -19 -3 -42 -7 -50
-9 -8 -2 -31 -7 -50 -10 -19 -3 -71 -12 -115 -20 -44 -8 -96 -17 -115 -19 -19
-3 -44 -7 -55 -10 -11 -2 -31 -7 -45 -10 -14 -3 -41 -8 -60 -10 -19 -3 -60
-10 -90 -16 -30 -6 -71 -13 -90 -16 -19 -3 -42 -7 -50 -9 -8 -3 -33 -7 -55
-10 -22 -3 -63 -10 -91 -16 -28 -5 -61 -12 -75 -14 -13 -2 -76 -14 -139 -25
-63 -12 -126 -23 -140 -25 -14 -2 -50 -8 -80 -14 -212 -39 -279 -51 -310 -55
-19 -3 -46 -8 -60 -11 -14 -3 -38 -7 -55 -10 -16 -3 -41 -8 -55 -10 -36 -8
-59 -12 -110 -20 -25 -4 -54 -9 -65 -11 -11 -3 -36 -7 -55 -10 -41 -6 -65 -11
-100 -19 -28 -6 -64 -12 -112 -20 -18 -3 -44 -7 -58 -10 -14 -3 -41 -7 -60
-10 -19 -4 -53 -10 -75 -15 -22 -5 -60 -11 -85 -14 -25 -3 -62 -10 -82 -15
-21 -5 -38 -7 -38 -4 0 2 -6 1 -12 -3 -7 -5 -19 -9 -28 -9 -17 -2 -107 -16
-130 -22 -8 -1 -33 -5 -54 -8 -21 -3 -43 -8 -47 -11 -5 -2 -25 -7 -46 -9 -38
-4 -76 -10 -123 -20 -14 -3 -42 -8 -63 -11 -47 -7 -72 -12 -72 -14 0 -1 -11
-3 -25 -5 -67 -10 -97 -15 -122 -20 -16 -3 -40 -7 -55 -10 -30 -5 -126 -23
-158 -29 -11 -2 -40 -7 -65 -12 -25 -4 -47 -8 -50 -9 -3 0 -27 -4 -53 -9 -27
-4 -59 -9 -70 -12 -12 -2 -35 -7 -52 -9 -16 -3 -66 -13 -110 -21 -44 -9 -98
-18 -120 -20 -21 -2 -57 -9 -80 -15 -22 -6 -56 -13 -75 -15 -19 -2 -46 -6 -60
-9 -42 -9 -83 -16 -115 -20 -16 -1 -37 -5 -45 -8 -14 -5 -123 -26 -165 -31
-11 -2 -36 -6 -55 -9 -48 -9 -91 -17 -115 -21 -36 -7 -90 -16 -115 -21 -14 -3
-38 -7 -55 -10 -16 -2 -39 -6 -50 -8 -22 -5 -87 -17 -125 -23 -14 -3 -50 -9
-80 -15 -74 -14 -88 -16 -140 -24 -25 -4 -61 -11 -80 -16 -20 -4 -53 -11 -75
-14 -22 -2 -62 -9 -90 -15 -27 -5 -66 -12 -85 -14 -19 -3 -35 -5 -35 -6 0 -2
-24 -7 -71 -14 -23 -4 -77 -13 -120 -22 -79 -15 -87 -16 -166 -29 -24 -4 -52
-9 -63 -11 -11 -2 -32 -6 -47 -9 -16 -3 -43 -8 -60 -11 -18 -3 -55 -10 -83
-15 -27 -5 -68 -12 -90 -15 -22 -3 -58 -10 -80 -16 -22 -6 -44 -10 -49 -9 -5
1 -30 -2 -55 -8 -25 -6 -66 -13 -91 -17 -24 -3 -47 -7 -50 -9 -5 -3 -57 -12
-119 -20 -17 -2 -38 -6 -48 -9 -10 -3 -34 -7 -53 -10 -19 -3 -60 -10 -90 -16
-30 -6 -71 -13 -90 -16 -44 -8 -65 -12 -65 -14 0 -1 -16 -3 -35 -5 -19 -3 -46
-7 -60 -10 -31 -7 -53 -11 -110 -19 -25 -4 -52 -8 -60 -11 -8 -2 -35 -7 -60
-10 -24 -4 -47 -8 -50 -10 -3 -2 -24 -6 -46 -9 -22 -4 -51 -9 -64 -11 -14 -3
-38 -7 -55 -10 -16 -3 -41 -7 -55 -10 -14 -3 -38 -7 -55 -10 -16 -2 -55 -9
-85 -15 -30 -6 -72 -13 -93 -16 -45 -7 -70 -12 -77 -15 -3 -1 -9 -3 -15 -4
-68 -10 -111 -17 -128 -21 -25 -5 -118 -21 -162 -28 -16 -3 -55 -10 -85 -16
-30 -6 -68 -13 -85 -15 -16 -3 -41 -7 -55 -10 -14 -2 -36 -7 -50 -10 -28 -5
-69 -13 -119 -21 -18 -3 -43 -8 -55 -10 -11 -3 -37 -7 -56 -9 -19 -3 -46 -8
-60 -11 -35 -8 -51 -11 -96 -19 -22 -3 -52 -8 -69 -11 -16 -3 -39 -7 -50 -9
-11 -1 -60 -10 -110 -20 -49 -9 -101 -18 -115 -20 -14 -2 -34 -6 -45 -8 -20
-4 -81 -16 -123 -23 -19 -3 -75 -13 -169 -30 -16 -3 -38 -7 -51 -9 -12 -2 -48
-9 -80 -14 -31 -6 -73 -13 -92 -16 -19 -3 -42 -8 -50 -10 -8 -2 -31 -7 -50 -9
-19 -3 -46 -8 -60 -11 -14 -3 -41 -7 -60 -10 -31 -4 -62 -10 -155 -28 -11 -3
-36 -7 -55 -10 -76 -14 -96 -17 -115 -21 -11 -2 -40 -7 -65 -11 -25 -4 -54 -9
-65 -11 -11 -3 -36 -7 -55 -10 l-35 -5 -55 108 c-30 59 -56 110 -59 113 -4 3
-22 37 -41 75 -19 39 -38 71 -42 73 -5 2 -8 9 -8 17 0 7 -7 18 -15 25 -8 7
-13 16 -10 20 2 4 -4 15 -15 25 -28 26 -25 43 15 81 19 18 35 35 35 37 0 3 27
33 60 67 33 34 60 63 60 65 0 1 21 24 47 51 44 45 221 235 287 309 28 30 185
200 241 260 17 18 73 79 125 135 139 150 160 173 215 231 28 29 64 70 81 91
18 20 34 34 38 31 3 -4 6 -1 6 5 0 10 29 42 175 197 17 18 71 76 120 130 50
54 108 117 130 140 22 23 74 80 116 126 42 46 92 100 110 120 46 49 231 249
299 322 54 60 128 139 174 187 13 14 44 48 69 77 25 28 48 49 51 46 3 -4 6 -2
6 4 0 6 15 26 33 45 17 20 78 85 135 145 56 61 111 120 120 131 10 12 65 71
123 133 113 121 123 132 249 269 47 51 110 119 140 151 30 32 89 95 130 140
41 45 91 98 110 119 19 20 76 81 125 136 50 54 106 114 125 135 19 20 78 83
130 140 52 56 112 120 133 141 20 21 37 40 37 42 0 2 26 31 58 63 31 33 91 97
132 142 41 45 100 109 130 141 31 32 76 81 100 108 45 49 218 237 275 297 17
18 75 81 130 140 55 60 114 123 130 141 47 51 207 223 240 259 17 18 73 79
127 136 150 161 178 193 178 201 0 5 7 8 15 8 8 0 15 4 15 8 0 4 17 26 38 48
20 23 63 70 96 105 79 86 254 275 289 311 15 16 27 34 27 40 0 6 3 9 6 5 3 -3
24 15 46 41 39 44 78 87 183 198 28 30 62 66 76 82 14 16 31 32 37 36 11 6
121 -41 133 -57 3 -5 8 -8 10 -7 2 1 17 -3 32 -9 16 -6 32 -11 36 -11 4 0 12
-5 18 -11 16 -16 239 -107 303 -124 8 -2 40 -13 70 -25 47 -17 264 -76 310
-84 8 -1 26 -5 40 -9 14 -4 36 -9 50 -11 14 -3 36 -8 50 -11 14 -3 39 -7 55
-9 17 -3 44 -7 60 -10 32 -5 102 -16 150 -22 17 -2 81 -6 144 -9 63 -3 118 -8
122 -11 4 -2 10 0 14 5 3 6 11 8 18 5 22 -8 87 -11 87 -3 0 4 13 4 29 -1 16
-4 32 -6 34 -3 3 2 61 6 128 9 68 2 140 6 159 8 19 3 62 7 95 10 56 6 72 8
135 21 14 2 39 7 55 10 17 2 43 7 58 11 16 3 38 7 50 9 12 2 67 15 122 30 55
14 108 28 118 30 27 6 288 96 322 110 17 8 64 28 105 46 88 37 151 67 203 97
21 12 44 22 52 22 8 0 15 4 15 9 0 7 57 36 78 40 1 1 50 -49 110 -110z"/>
</g>
</svg>
