<?xml version="1.0" standalone="no"?>
<!DOCTYPE svg PUBLIC "-//W3C//DTD SVG 20010904//EN"
 "http://www.w3.org/TR/2001/REC-SVG-20010904/DTD/svg10.dtd">
<svg version="1.0" xmlns="http://www.w3.org/2000/svg"
 width="202.000000pt" height="202.000000pt" viewBox="0 0 202.000000 202.000000"
 preserveAspectRatio="xMidYMid meet">
<metadata>
Created by potrace 1.14, written by Peter Selinger 2001-2017
</metadata>
<g transform="translate(0.000000,202.000000) scale(0.100000,-0.100000)"
fill="#000000" stroke="none">
<path d="M224 1533 c-1 -108 -12 -355 -19 -428 -2 -16 -3 -45 -4 -63 l-1 -33
-62 1 c-35 1 -79 1 -98 1 l-36 -1 -2 -71 -2 -70 100 3 101 3 -6 -145 c-5 -142
-10 -219 -20 -310 l-5 -46 105 -1 105 -2 1 82 c1 150 16 404 24 417 2 4 47 6
100 4 l95 -3 1 42 c0 23 2 54 3 70 1 15 -3 27 -9 28 -5 0 -50 0 -98 0 l-89 0
6 192 c5 162 10 267 19 417 l2 25 -105 3 -105 3 -1 -118z"/>
<path d="M498 1580 c-2 -42 1 -70 7 -71 6 0 51 0 101 1 l92 1 -4 -88 c-5 -132
-14 -293 -19 -338 -2 -22 -6 -123 -9 -225 -7 -189 -12 -304 -21 -421 l-4 -66
104 -2 c93 0 105 1 106 17 1 9 2 69 4 132 1 63 6 180 10 260 4 80 9 195 10
255 4 127 16 408 19 445 3 25 4 25 102 28 l100 3 2 69 3 70 -300 0 -299 0 -4
-70z"/>
<path d="M1797 1024 c-1 -1 -18 -4 -38 -7 -92 -12 -156 -71 -166 -154 -8 -75
15 -111 148 -226 70 -60 85 -86 65 -112 -23 -31 -144 -26 -227 9 -14 6 -15 -2
-11 -66 2 -40 7 -77 12 -81 13 -14 71 -21 180 -22 90 0 112 3 152 23 55 27 83
59 99 112 23 76 -8 139 -105 215 -120 96 -136 127 -78 156 31 16 58 15 158 -6
l32 -7 -5 68 c-3 38 -8 72 -12 76 -10 11 -194 31 -204 22z"/>
<path d="M1081 1010 l-84 -5 -3 -140 c-3 -154 -11 -324 -20 -426 l-6 -67 96 0
96 0 1 52 c4 216 12 418 17 439 7 26 105 24 132 -3 23 -23 25 -39 9 -74 -13
-27 -55 -49 -91 -46 -12 1 -26 2 -30 1 -3 -1 1 -29 11 -63 l16 -63 68 1 c128
3 212 73 224 187 10 97 -36 177 -117 203 -29 9 -199 11 -319 4z"/>
</g>
</svg>
