<?xml version="1.0" standalone="no"?>
<!DOCTYPE svg PUBLIC "-//W3C//DTD SVG 20010904//EN"
 "http://www.w3.org/TR/2001/REC-SVG-20010904/DTD/svg10.dtd">
<svg version="1.0" xmlns="http://www.w3.org/2000/svg"
 width="400.000000pt" height="400.000000pt" viewBox="0 0 400.000000 400.000000"
 preserveAspectRatio="xMidYMid meet">
<metadata>
Created by potrace 1.14, written by Peter Selinger 2001-2017
</metadata>
<g transform="translate(0.000000,400.000000) scale(0.100000,-0.100000)"
fill="#000000" stroke="none">
<path d="M1950 2802 c0 -7 -3 -11 -8 -9 -4 1 -18 -8 -31 -20 -12 -11 -42 -26
-66 -32 -24 -6 -46 -15 -50 -21 -3 -5 -12 -7 -19 -4 -7 3 -19 -2 -26 -11 -7
-8 -20 -15 -29 -15 -23 -1 -132 -113 -158 -163 -47 -90 -53 -113 -62 -221 -5
-61 -10 -118 -10 -126 0 -8 -3 -38 -7 -66 -4 -35 -1 -76 10 -128 10 -42 17
-79 18 -83 0 -5 4 -16 9 -25 5 -10 11 -52 14 -95 2 -43 11 -98 18 -123 8 -25
10 -50 6 -55 -5 -6 -26 -30 -48 -53 -22 -24 -52 -68 -66 -97 l-27 -53 -76 -17
c-69 -16 -139 -39 -242 -82 -63 -26 -94 -46 -136 -87 -22 -23 -75 -68 -118
-101 -160 -125 -286 -236 -286 -252 0 -12 -53 -63 -67 -63 -18 0 -63 -41 -63
-58 0 -15 -28 -62 -78 -131 -21 -30 -53 -61 -63 -61 -4 0 -11 -10 -15 -22 -8
-28 -63 -77 -85 -78 -9 0 -33 -20 -55 -45 -21 -24 -44 -45 -49 -45 -6 0 -27
-11 -48 -25 l-37 -26 0 -154 0 -155 279 0 c228 0 280 3 284 14 3 8 15 12 29 9
17 -3 32 5 57 31 19 20 40 36 47 36 14 0 70 61 78 87 4 10 20 29 37 43 17 14
50 43 74 66 52 48 56 43 48 -54 -3 -39 0 -106 7 -151 l12 -81 1524 0 1524 0 0
73 c-1 77 -10 97 -63 131 -16 11 -27 27 -27 40 0 24 -11 37 -90 106 -29 25
-59 54 -68 65 -10 11 -41 43 -69 72 -29 29 -53 59 -53 67 0 8 -18 31 -40 52
-31 30 -37 41 -30 55 16 28 12 43 -17 76 -26 29 -59 90 -111 205 -16 34 -45
67 -112 124 -49 42 -90 79 -90 83 0 3 -32 31 -71 61 -40 30 -79 62 -88 71 -30
29 -89 58 -163 78 -40 12 -104 34 -143 49 -67 28 -70 31 -76 67 -7 45 -34 70
-90 85 -21 6 -39 15 -39 20 0 16 -71 90 -81 84 -5 -3 -9 -1 -9 3 0 5 -14 10
-31 11 -18 1 -36 5 -41 8 -11 7 -1 118 12 142 17 30 71 268 66 293 -3 13 -5
27 -5 31 -1 4 -9 9 -19 12 -10 4 -19 12 -19 19 -2 72 -23 226 -33 247 -4 8
-18 39 -31 68 -12 28 -26 52 -31 52 -4 0 -8 6 -8 13 0 11 -20 31 -113 108 -28
23 -36 27 -31 13 5 -15 3 -14 -10 4 -10 12 -24 22 -32 22 -8 0 -14 10 -14 23
0 14 -3 18 -8 10 -10 -16 -72 5 -72 24 0 7 -4 13 -10 13 -5 0 -10 -5 -10 -12
0 -6 -10 -3 -22 8 -14 12 -18 14 -13 4 4 -8 -4 -4 -18 9 -15 14 -27 19 -27 13z"/>
</g>
</svg>
